# xmcd
# 
# Track frame offsets:
#     150
#     20637
#     34177
#     50560
#     72075
#     88717
#     102465
#     120562
#     136990
#     156312
#     178335
#     195480
#     218635
#     236385
#     268012
#     284767
#     305287
#     317630
# 
# Disc length: 4439
# 
# Revision: 18
# Processed by: cddbd v1.5.2PL0 Copyright (c) Steve Scherf et al.
# Submitted via: fre:ac v1.0.31
# 
DISCID=09115512
DTITLE=Jimmy Buffett - Meet Me In Margaritaville Disc  2
DYEAR=2003
DGENRE=Rock/Pop
TTITLE0=School Boy Heart
TTITLE1=Everybody's Talkin' (New)
TTITLE2=Volcano
TTITLE3=Son of a Son of a Sailor (New Recording)
TTITLE4=Take Another Road
TTITLE5=Knees of My Heart (New Recording)
TTITLE6=In the Shelter (New Recording)
TTITLE7=Havana Daydreamin'
TTITLE8=Desperation Samba (Halloween in Tijuana) (Live - New Recording)
TTITLE9=Barefoot Children
TTITLE10=Saxophones (New Recording)
TTITLE11=Cowboy in the Jungle
TTITLE12=He Went to Paris (New Recording)
TTITLE13=Creola
TTITLE14=Bob Robert's Society Band
TTITLE15=A Pirate Looks at Forty (Live - New Recording)
TTITLE16=Sail On, Sailor (New)
TTITLE17=The Captain and the Kid (New Recording)
EXTD=YEAR: 2003
EXTT0=
EXTT1=
EXTT2=
EXTT3=
EXTT4=
EXTT5=
EXTT6=
EXTT7=
EXTT8=
EXTT9=
EXTT10=
EXTT11=
EXTT12=
EXTT13=
EXTT14=
EXTT15=
EXTT16=
EXTT17=
PLAYORDER=
